#!OML:ASF H:\ManfredETheater\Project 1\Capture day 1\Session 1\subject.ASF
:FULLY-SPECIFIED
:DEGREES
155
root -1.2255 4.77646 -16.4101 130.581 -4.50461 -105.955
lowerback 38.3763 -1.07524 7.95009
upperback 9.76394 -0.464949 10.2923
thorax -7.80914 -1.98152 7.32659
lowerneck -8.57194 -9.28861 -8.57489
upperneck 10.0024 -15.577 21.7401
head 6.96221 -7.25736 6.8196
rclavicle -4.13472e-014 1.27222e-013
rhumerus 13.109 -25.8076 -41.9394
rradius 72.0653
rwrist -13.2712
rhand -29.7171 -13.9235
rfingers 7.12502
rthumb -3.04423 -43.8815
lclavicle -4.13472e-014 1.27222e-013
lhumerus -23.9066 -4.78013 74.3646
lradius 81.4219
lwrist -54.3529
lhand -26.3164 15.5863
lfingers 7.12502
lthumb 0.240151 45.5659
rfemur -73.5267 -26.0316 14.595
rtibia 79.9235
rfoot 19.2762 -2.16571
rtoes -19.8539
lfemur -76.3975 28.5563 -19.4917
ltibia 139.227
lfoot 38.0164 -20.4682
ltoes 33.1369
156
root -1.21795 4.98296 -16.6298 131.101 -6.53915 -106.045
lowerback 39.0773 -0.797328 7.67279
upperback 9.77613 -0.142026 10.2261
thorax -8.06886 -1.82612 7.30135
lowerneck -8.46061 -9.40281 -8.2262
upperneck 9.49138 -15.8484 22.362
head 6.86334 -7.40592 6.93114
rclavicle 3.18055e-015 -1.90833e-013
rhumerus 13.8201 -25.5607 -40.966
rradius 71.1757
rwrist -13.0506
rhand -29.2441 -13.3036
rfingers 7.12502
rthumb -2.58748 -43.2676
lclavicle 3.18055e-015 -1.90833e-013
lhumerus -24.2021 -6.13335 73.7927
lradius 81.8949
lwrist -55.4977
lhand -27.5677 16.1011
lfingers 7.12502
lthumb -0.968341 46.0787
rfemur -74.0888 -24.8168 13.9101
rtibia 78.0384
rfoot 17.9216 -1.5907
rtoes -23.3996
lfemur -76.7767 27.9538 -19.9401
ltibia 139.002
lfoot 36.2883 -20.5278
ltoes 34.6217
157
root -1.21217 5.19637 -16.8519 131.558 -8.60068 -106.336
lowerback 39.953 -0.43975 7.18731
upperback 9.78851 0.208797 10.1258
thorax -8.39566 -1.65783 7.33886
lowerneck -8.4069 -9.54512 -7.90813
upperneck 8.92455 -16.1794 23.1311
head 6.78786 -7.58946 7.08469
rclavicle -2.14687e-014 -7.31528e-014
rhumerus 14.3341 -25.4032 -40.1585
rradius 70.4589
rwrist -12.5081
rhand -28.9132 -12.7932
rfingers 7.12502
rthumb -2.26785 -42.7609
lclavicle -2.14687e-014 -7.31528e-014
lhumerus -24.4266 -7.10427 73.2022
lradius 82.466
lwrist -56.351
lhand -28.9201 16.7889
lfingers 7.12502
lthumb -2.27451 46.7566
rfemur -74.8406 -23.9415 13.4877
rtibia 76.303
rfoot 16.6197 -0.868784
rtoes -26.9267
lfemur -76.7484 27.7964 -20.6291
ltibia 138.735
lfoot 33.9609 -20.0064
ltoes 35.2987
158
root -1.20795 5.4156 -17.0738 131.91 -10.6562 -106.691
lowerback 41.0338 -0.0711953 6.64442
upperback 9.80263 0.544344 10.0231
thorax -8.78229 -1.50549 7.41339
lowerneck -8.42787 -9.6928 -7.65039
upperneck 8.2964 -16.5205 24.0154
head 6.72981 -7.78403 7.2807
rclavicle -3.18055e-014 -1.33583e-013
rhumerus 14.6713 -25.3064 -39.5354
rradius 69.9521
rwrist -11.9003
rhand -28.7861 -12.4955
rfingers 7.12502
rthumb -2.14512 -42.4644
lclavicle -3.18055e-014 -1.33583e-013
lhumerus -24.6716 -7.69926 72.594
lradius 83.1113
lwrist -56.7572
lhand -30.4884 17.2507
lfingers 7.12502
lthumb -3.7891 47.1968
rfemur -75.665 -23.4135 13.3931
rtibia 74.6954
rfoot 15.5914 -0.117082
rtoes -29.7407
lfemur -76.3256 27.9548 -21.2599
ltibia 138.436
lfoot 31.7286 -19.1076
ltoes 35.699
159
root -1.20527 5.63862 -17.295 132.133 -12.6995 -106.988
lowerback 42.3081 0.223605 6.1817
upperback 9.80173 0.809971 9.92794
thorax -9.22449 -1.39619 7.48744
lowerneck -8.50773 -9.82087 -7.45955
upperneck 7.62398 -16.8211 24.9514
head 6.67791 -7.96517 7.50777
rclavicle 1.74931e-014 -1.17681e-013
rhumerus 14.8287 -25.2008 -39.0893
rradius 69.6929
rwrist -11.4787
rhand -28.8201 -12.4894
rfingers 7.12502
rthumb -2.17797 -42.4581
lclavicle 1.74931e-014 -1.17681e-013
lhumerus -25.0445 -7.9593 71.9495
lradius 83.8046
lwrist -56.7874
lhand -32.2484 17.3776
lfingers 7.12502
lthumb -5.48856 47.2865
rfemur -76.4955 -23.2571 13.6743
rtibia 73.2087
rfoot 15.0222 0.564839
rtoes -31.418
lfemur -75.56 28.2769 -21.6092
ltibia 138.118
lfoot 30.0379 -18.2868
ltoes 35.9951
160
root -1.20417 5.86519 -17.5157 132.235 -14.6915 -107.163
lowerback 43.7217 0.405731 5.86928
upperback 9.77755 0.987097 9.84775
thorax -9.70192 -1.33771 7.54097
lowerneck -8.62283 -9.90952 -7.32649
upperneck 6.93363 -17.0414 25.8711
head 6.62064 -8.11266 7.74955
rclavicle -1.27222e-014 9.54166e-014
rhumerus 14.8274 -25.0117 -38.8181
rradius 69.6791
rwrist -11.4317
rhand -29.0389 -12.7485
rfingers 7.12502
rthumb -2.38929 -42.7148
lclavicle -1.27222e-014 9.54166e-014
lhumerus -25.5794 -7.93112 71.2472
lradius 84.4577
lwrist -56.5745
lhand -34.2062 17.122
lfingers 7.12502
lthumb -7.37863 46.9733
rfemur -77.3334 -23.4278 14.3782
rtibia 71.8589
rfoot 15.0096 1.11347
rtoes -32.0487
lfemur -74.5794 28.6715 -21.5012
ltibia 137.792
lfoot 29.2353 -18.0475
ltoes 36.2318
161
root -1.20429 6.09509 -17.7377 132.263 -16.6005 -107.202
lowerback 45.1726 0.464378 5.7293
upperback 9.73037 1.07576 9.77273
thorax -10.1775 -1.32556 7.55073
lowerneck -8.75065 -9.96071 -7.23195
upperneck 6.25341 -17.1803 26.7237
head 6.55368 -8.22416 7.98799
rclavicle -4.6118e-014 3.49861e-014
rhumerus 14.6832 -24.709 -38.7245
rradius 69.8907
rwrist -11.8217
rhand -29.3765 -13.1813
rfingers 7.12502
rthumb -2.71534 -43.1438
lclavicle -4.6118e-014 3.49861e-014
lhumerus -26.2364 -7.68945 70.4636
lradius 84.9875
lwrist -56.2688
lhand -36.2286 16.6155
lfingers 7.12502
lthumb -9.33038 46.3891
rfemur -78.2489 -23.8569 15.5206
rtibia 70.6832
rfoot 15.5354 1.45068
rtoes -31.7179
lfemur -73.593 29.0903 -20.9661
ltibia 137.483
lfoot 29.4897 -18.6294
ltoes 36.357
162
root -1.20532 6.32813 -17.9641 132.281 -18.4038 -107.129
lowerback 46.5406 0.416173 5.73556
upperback 9.66738 1.09008 9.68713
thorax -10.6117 -1.34694 7.50408
lowerneck -8.83495 -9.97473 -7.16422
upperneck 5.57472 -17.2373 27.5066
head 6.46107 -8.30354 8.22363
rclavicle 2.70347e-014 9.54166e-015
rhumerus 14.396 -24.2882 -38.8087
rradius 70.3092
rwrist -12.6051
rhand -29.7048 -13.6761
rfingers 7.12502
rthumb -3.03235 -43.6343
lclavicle 2.70347e-014 9.54166e-015
lhumerus -26.9415 -7.29228 69.5656
lradius 85.3301
lwrist -55.9588
lhand -38.1285 15.8411
lfingers 7.12502
lthumb -11.1632 45.5241
rfemur -79.3377 -24.4541 17.0858
rtibia 69.7282
rfoot 16.469 1.53273
rtoes -30.705
lfemur -72.7128 29.6173 -20.0845
ltibia 137.247
lfoot 30.5898 -19.9602
ltoes 36.3181
163
root -1.20558 6.56517 -18.1977 132.34 -20.0563 -106.949
lowerback 48.6476 0.132237 6.15945
upperback 8.60721 1.10614 9.40737
thorax -10.9012 -1.41945 7.25066
lowerneck -8.91225 -9.9713 -7.10289
upperneck 4.95005 -17.2521 28.1986
head 6.36758 -8.362 8.43814
rclavicle 1.04958e-013 7.63333e-014
rhumerus 13.981 -23.7692 -39.0774
rradius 70.893
rwrist -13.5945
rhand -29.9692 -14.1536
rfingers 7.12502
rthumb -3.28776 -44.108
lclavicle 1.04958e-013 7.63333e-014
lhumerus -27.6075 -6.79454 68.5246
lradius 85.4393
lwrist -55.6659
lhand -39.8742 14.8644
lfingers 7.12502
lthumb -12.8465 44.4491
rfemur -80.6821 -25.0965 19.0749
rtibia 69.0456
rfoot 17.6029 1.35884
rtoes -29.3655
lfemur -72.0277 30.4015 -18.8634
ltibia 137.128
lfoot 32.3288 -21.6639
ltoes 36.152
164
root -1.20401 6.80617 -18.4412 132.491 -21.5898 -106.733
lowerback 49.6738 -0.0415628 6.36539
upperback 8.49108 1.05467 9.271
thorax -11.168 -1.46307 7.08308
lowerneck -8.9756 -9.9617 -7.06409
upperneck 4.35428 -17.2435 28.8427
head 6.27371 -8.41088 8.64601
rclavicle -9.54166e-015 3.49861e-014
rhumerus 13.4379 -23.1935 -39.5061
rradius 71.6219
rwrist -14.5763
rhand -30.1249 -14.5548
rfingers 7.12502
rthumb -3.43803 -44.5069
lclavicle -9.54166e-015 3.49861e-014
lhumerus -28.1251 -6.26429 67.3612
lradius 85.2755
lwrist -55.2917
lhand -41.5547 13.7883
lfingers 7.12502
lthumb -14.4661 43.264
rfemur -82.3357 -25.6952 21.3867
rtibia 68.6801
rfoot 18.7279 1.06652
rtoes -28.1049
lfemur -71.5288 31.498 -17.4387
ltibia 137.128
lfoot 34.2123 -23.4689
ltoes 35.1853
165
root -1.1999 7.04989 -18.6957 132.781 -23.1436 -106.597
lowerback 50.4309 -0.197836 6.46986
upperback 8.41643 0.963085 9.08856
thorax -11.3382 -1.50682 6.91236
lowerneck -9.01941 -9.95511 -7.04989
upperneck 3.76831 -17.2261 29.4644
head 6.17845 -8.45914 8.85411
rclavicle 3.49861e-014 9.54166e-014
rhumerus 12.7777 -22.6065 -40.0759
rradius 72.4508
rwrist -15.3261
rhand -30.1577 -14.8394
rfingers 7.12502
rthumb -3.46972 -44.7909
lclavicle 3.49861e-014 9.54166e-014
lhumerus -28.4331 -5.75193 66.0995
lradius 84.8305
lwrist -54.7369
lhand -43.1899 12.6464
lfingers 7.12502
lthumb -16.0413 42.0023
rfemur -84.3279 -26.2364 23.8058
rtibia 68.671
rfoot 19.7247 0.788341
rtoes -27.0705
lfemur -71.1868 32.7263 -16.0267
ltibia 137.223
lfoot 35.753 -24.9454
ltoes 33.654
166
root -1.19229 7.29528 -18.9626 133.19 -24.7495 -106.584
lowerback 50.9536 -0.301385 6.42136
upperback 8.3963 0.842345 8.86897
thorax -11.4137 -1.54718 6.76722
lowerneck -9.0424 -9.95703 -7.0629
upperneck 3.17653 -17.2043 30.0705
head 6.0787 -8.50989 9.06459
rclavicle 6.04305e-014 6.36111e-014
rhumerus 12.0119 -22.0324 -40.7455
rradius 73.3399
rwrist -15.6943
rhand -30.0856 -15.0044
rfingers 7.12502
rthumb -3.40012 -44.957
lclavicle 6.04305e-014 6.36111e-014
lhumerus -28.5294 -5.29017 64.7754
lradius 84.1229
lwrist -53.8691
lhand -44.8483 11.3452
lfingers 7.12502
lthumb -17.6376 40.5652
rfemur -86.5992 -26.665 26.2204
rtibia 69.0349
rfoot 20.4818 0.611147
rtoes -26.3471
lfemur -70.9193 34.0613 -14.6344
ltibia 137.38
lfoot 36.6292 -26.0119
ltoes 31.1967
167
root -1.18124 7.54026 -19.2419 133.698 -26.4801 -106.754
lowerback 51.2949 -0.326937 6.15223
upperback 8.42784 0.690497 8.61464
thorax -11.4136 -1.5845 6.68486
lowerneck -9.01089 -9.96991 -7.10296
upperneck 2.56076 -17.1736 30.6564
head 5.96105 -8.56423 9.27829
rclavicle 1.46306e-013 5.40694e-014
rhumerus 11.1262 -21.4731 -41.4479
rradius 74.2651
rwrist -15.6449
rhand -29.9546 -15.0504
rfingers 7.12502
rthumb -3.27363 -45.0051
lclavicle 1.46306e-013 5.40694e-014
lhumerus -28.4085 -4.90508 63.4344
lradius 83.1576
lwrist -52.7272
lhand -46.4775 9.9597
lfingers 7.12502
lthumb -19.2049 39.0315
rfemur -89.0721 -26.9817 28.4799
rtibia 69.7711
rfoot 20.9478 0.55281
rtoes -26.0432
lfemur -70.608 35.3487 -13.3473
ltibia 137.531
lfoot 36.8973 -26.7206
ltoes 28.038
